<svg xmlns="http://www.w3.org/2000/svg"  viewBox="0 0 100 100" width="100px" height="100px"><circle cx="52" cy="52" r="44" opacity=".35"/><circle cx="50" cy="50" r="44" fill="#f2f2f2"/><path fill="#739f4d" d="M50,12.5c-20.769,0-37.5,16.731-37.5,37.5S29.231,87.5,50,87.5c20.768,0,37.5-16.731,37.5-37.5 S70.768,12.5,50,12.5z"/><path fill="#40396e" d="M50,89c-21.505,0-39-17.495-39-39s17.495-39,39-39s39,17.495,39,39S71.505,89,50,89z M50,14 c-19.851,0-36,16.149-36,36s16.149,36,36,36s36-16.149,36-36S69.851,14,50,14z"/><g><path fill="#f2f2f2" d="M64.524,68.591c-0.548,0-1.097-0.272-1.644-0.548c-5.207-3.013-11.511-4.658-18.36-4.658 c-3.838,0-7.674,0.546-11.237,1.369c-0.548,0-1.371,0.274-1.644,0.274c-1.371,0-2.192-1.099-2.192-2.194 c0-1.369,0.821-2.194,1.918-2.464c4.384-1.099,8.769-1.644,13.427-1.644c7.674,0,14.799,1.914,20.827,5.482 c0.821,0.546,1.371,1.095,1.371,2.464C66.716,67.771,65.619,68.591,64.524,68.591z M68.36,59.272c-0.821,0-1.369-0.27-1.918-0.546 c-5.753-3.562-13.703-5.758-22.744-5.758c-4.386,0-8.496,0.549-11.511,1.374c-0.823,0.27-1.097,0.27-1.644,0.27 c-1.644,0-2.741-1.369-2.741-2.739c0-1.644,0.823-2.467,2.192-3.013c4.11-1.095,8.222-1.918,13.976-1.918 c9.319,0,18.362,2.194,25.487,6.576c1.095,0.546,1.644,1.644,1.644,2.739C71.101,57.903,70.004,59.272,68.36,59.272z M72.746,48.314c-0.821,0-1.097-0.274-1.918-0.546c-6.577-3.838-16.442-6.032-26.034-6.032c-4.933,0-9.866,0.549-14.25,1.644 c-0.549,0-1.097,0.274-1.918,0.274c-1.918,0.274-3.289-1.369-3.289-3.289c0-1.918,1.097-3.013,2.466-3.289 c5.207-1.644,10.687-2.194,16.991-2.194c10.414,0,21.375,2.194,29.597,6.851c1.095,0.549,1.916,1.644,1.916,3.289 C76.034,46.942,74.662,48.314,72.746,48.314z"/></g></svg>